<?xml version="1.0" encoding="UTF-8" standalone="no"?>
<!DOCTYPE svg PUBLIC "-//W3C//DTD SVG 1.1//EN"
 "http://www.w3.org/Graphics/SVG/1.1/DTD/svg11.dtd">
<!-- Generated by graphviz version 2.40.1 (20161225.0304)
 -->
<!-- Title: atd_00_template_api_python Pages: 1 -->
<svg width="249pt" height="369pt"
 viewBox="0.00 0.00 249.00 369.00" xmlns="http://www.w3.org/2000/svg" xmlns:xlink="http://www.w3.org/1999/xlink">
<g id="graph0" class="graph" transform="scale(1 1) rotate(0) translate(4 365)">
<title>atd_00_template_api_python</title>
<polygon fill="#ffffff" stroke="transparent" points="-4,4 -4,-365 245,-365 245,4 -4,4"/>
<!-- users -->
<g id="node1" class="node">
<title>users</title>
<polygon fill="#efefef" stroke="transparent" points="43.5,-282.5 43.5,-317.5 198.5,-317.5 198.5,-282.5 43.5,-282.5"/>
<polygon fill="none" stroke="#000000" points="43.5,-282.5 43.5,-317.5 198.5,-317.5 198.5,-282.5 43.5,-282.5"/>
<text text-anchor="start" x="50.3708" y="-295.3" font-family="Arial Bold" font-size="18.00" fill="#000000">users</text>
<text text-anchor="start" x="94.3754" y="-295.3" font-family="Arial" font-size="14.00" fill="#000000"> </text>
<text text-anchor="start" x="98.266" y="-295.3" font-family="Arial" font-size="14.00" fill="#666666">[BASE TABLE]</text>
<polygon fill="none" stroke="#000000" points="43.5,-252.5 43.5,-282.5 198.5,-282.5 198.5,-252.5 43.5,-252.5"/>
<text text-anchor="start" x="50.5" y="-263.9" font-family="Arial" font-size="14.00" fill="#000000">id </text>
<text text-anchor="start" x="65.2798" y="-263.9" font-family="Arial" font-size="14.00" fill="#666666">[int(11)]</text>
<polygon fill="none" stroke="#000000" points="43.5,-222.5 43.5,-252.5 198.5,-252.5 198.5,-222.5 43.5,-222.5"/>
<text text-anchor="start" x="50.5" y="-233.9" font-family="Arial" font-size="14.00" fill="#000000">customer_id </text>
<text text-anchor="start" x="130.622" y="-233.9" font-family="Arial" font-size="14.00" fill="#666666">[int(11)]</text>
<polygon fill="none" stroke="#000000" points="43.5,-192.5 43.5,-222.5 198.5,-222.5 198.5,-192.5 43.5,-192.5"/>
<text text-anchor="start" x="50.5" y="-203.9" font-family="Arial" font-size="14.00" fill="#000000">is_admin </text>
<text text-anchor="start" x="110.3948" y="-203.9" font-family="Arial" font-size="14.00" fill="#666666">[tinyint(1)]</text>
<polygon fill="none" stroke="#000000" points="43.5,-162.5 43.5,-192.5 198.5,-192.5 198.5,-162.5 43.5,-162.5"/>
<text text-anchor="start" x="50.5" y="-173.9" font-family="Arial" font-size="14.00" fill="#000000">name </text>
<text text-anchor="start" x="89.399" y="-173.9" font-family="Arial" font-size="14.00" fill="#666666">[varchar(50)]</text>
<polygon fill="none" stroke="#000000" points="43.5,-132.5 43.5,-162.5 198.5,-162.5 198.5,-132.5 43.5,-132.5"/>
<text text-anchor="start" x="50.5" y="-143.9" font-family="Arial" font-size="14.00" fill="#000000">email </text>
<text text-anchor="start" x="87.8296" y="-143.9" font-family="Arial" font-size="14.00" fill="#666666">[varchar(50)]</text>
<polygon fill="none" stroke="#000000" points="43.5,-102.5 43.5,-132.5 198.5,-132.5 198.5,-102.5 43.5,-102.5"/>
<text text-anchor="start" x="50.5" y="-113.9" font-family="Arial" font-size="14.00" fill="#000000">remark </text>
<text text-anchor="start" x="97.9376" y="-113.9" font-family="Arial" font-size="14.00" fill="#666666">[text]</text>
<polygon fill="none" stroke="#000000" points="43.5,-72.5 43.5,-102.5 198.5,-102.5 198.5,-72.5 43.5,-72.5"/>
<text text-anchor="start" x="50.5" y="-83.9" font-family="Arial" font-size="14.00" fill="#000000">created_at </text>
<text text-anchor="start" x="120.528" y="-83.9" font-family="Arial" font-size="14.00" fill="#666666">[datetime]</text>
<polygon fill="none" stroke="#000000" points="43.5,-42.5 43.5,-72.5 198.5,-72.5 198.5,-42.5 43.5,-42.5"/>
<text text-anchor="start" x="50.5" y="-53.9" font-family="Arial" font-size="14.00" fill="#000000">updated_at </text>
<text text-anchor="start" x="124.4326" y="-53.9" font-family="Arial" font-size="14.00" fill="#666666">[datetime]</text>
</g>
</g>
</svg>
