<?xml version="1.0" encoding="UTF-8" standalone="no"?>
<!DOCTYPE svg PUBLIC "-//W3C//DTD SVG 1.1//EN"
 "http://www.w3.org/Graphics/SVG/1.1/DTD/svg11.dtd">
<!-- Generated by graphviz version 2.40.1 (20161225.0304)
 -->
<!-- Title: users Pages: 1 -->
<svg width="255pt" height="375pt"
 viewBox="0.00 0.00 255.00 375.00" xmlns="http://www.w3.org/2000/svg" xmlns:xlink="http://www.w3.org/1999/xlink">
<g id="graph0" class="graph" transform="scale(1 1) rotate(0) translate(4 371)">
<title>users</title>
<polygon fill="#ffffff" stroke="transparent" points="-4,4 -4,-371 251,-371 251,4 -4,4"/>
<!-- users -->
<g id="node1" class="node">
<title>users</title>
<polygon fill="#efefef" stroke="transparent" points="46.5,-285.5 46.5,-320.5 201.5,-320.5 201.5,-285.5 46.5,-285.5"/>
<polygon fill="none" stroke="#000000" points="46.5,-285.5 46.5,-320.5 201.5,-320.5 201.5,-285.5 46.5,-285.5"/>
<text text-anchor="start" x="53.3708" y="-298.3" font-family="Arial Bold" font-size="18.00" fill="#000000">users</text>
<text text-anchor="start" x="97.3754" y="-298.3" font-family="Arial" font-size="14.00" fill="#000000"> </text>
<text text-anchor="start" x="101.266" y="-298.3" font-family="Arial" font-size="14.00" fill="#666666">[BASE TABLE]</text>
<polygon fill="none" stroke="#000000" points="46.5,-255.5 46.5,-285.5 201.5,-285.5 201.5,-255.5 46.5,-255.5"/>
<text text-anchor="start" x="53.5" y="-266.9" font-family="Arial" font-size="14.00" fill="#000000">id </text>
<text text-anchor="start" x="68.2798" y="-266.9" font-family="Arial" font-size="14.00" fill="#666666">[int(11)]</text>
<polygon fill="none" stroke="#000000" points="46.5,-225.5 46.5,-255.5 201.5,-255.5 201.5,-225.5 46.5,-225.5"/>
<text text-anchor="start" x="53.5" y="-236.9" font-family="Arial" font-size="14.00" fill="#000000">customer_id </text>
<text text-anchor="start" x="133.622" y="-236.9" font-family="Arial" font-size="14.00" fill="#666666">[int(11)]</text>
<polygon fill="none" stroke="#000000" points="46.5,-195.5 46.5,-225.5 201.5,-225.5 201.5,-195.5 46.5,-195.5"/>
<text text-anchor="start" x="53.5" y="-206.9" font-family="Arial" font-size="14.00" fill="#000000">is_admin </text>
<text text-anchor="start" x="113.3948" y="-206.9" font-family="Arial" font-size="14.00" fill="#666666">[tinyint(1)]</text>
<polygon fill="none" stroke="#000000" points="46.5,-165.5 46.5,-195.5 201.5,-195.5 201.5,-165.5 46.5,-165.5"/>
<text text-anchor="start" x="53.5" y="-176.9" font-family="Arial" font-size="14.00" fill="#000000">name </text>
<text text-anchor="start" x="92.399" y="-176.9" font-family="Arial" font-size="14.00" fill="#666666">[varchar(50)]</text>
<polygon fill="none" stroke="#000000" points="46.5,-135.5 46.5,-165.5 201.5,-165.5 201.5,-135.5 46.5,-135.5"/>
<text text-anchor="start" x="53.5" y="-146.9" font-family="Arial" font-size="14.00" fill="#000000">email </text>
<text text-anchor="start" x="90.8296" y="-146.9" font-family="Arial" font-size="14.00" fill="#666666">[varchar(50)]</text>
<polygon fill="none" stroke="#000000" points="46.5,-105.5 46.5,-135.5 201.5,-135.5 201.5,-105.5 46.5,-105.5"/>
<text text-anchor="start" x="53.5" y="-116.9" font-family="Arial" font-size="14.00" fill="#000000">remark </text>
<text text-anchor="start" x="100.9376" y="-116.9" font-family="Arial" font-size="14.00" fill="#666666">[text]</text>
<polygon fill="none" stroke="#000000" points="46.5,-75.5 46.5,-105.5 201.5,-105.5 201.5,-75.5 46.5,-75.5"/>
<text text-anchor="start" x="53.5" y="-86.9" font-family="Arial" font-size="14.00" fill="#000000">created_at </text>
<text text-anchor="start" x="123.528" y="-86.9" font-family="Arial" font-size="14.00" fill="#666666">[datetime]</text>
<polygon fill="none" stroke="#000000" points="46.5,-45.5 46.5,-75.5 201.5,-75.5 201.5,-45.5 46.5,-45.5"/>
<text text-anchor="start" x="53.5" y="-56.9" font-family="Arial" font-size="14.00" fill="#000000">updated_at </text>
<text text-anchor="start" x="127.4326" y="-56.9" font-family="Arial" font-size="14.00" fill="#666666">[datetime]</text>
<polygon fill="none" stroke="#000000" stroke-width="3" points="44.5,-44.5 44.5,-322.5 202.5,-322.5 202.5,-44.5 44.5,-44.5"/>
</g>
</g>
</svg>
